<svg width="50" height="50" viewBox="0 0 50 50" fill="none" xmlns="http://www.w3.org/2000/svg">
<circle cx="25" cy="25" r="25" fill="#292929"/>
<path d="M16.8661 22.6058C16.8267 23.8431 17.4458 24.391 17.4611 24.739C17.4538 24.8098 17.4297 24.8779 17.3907 24.9375C17.3516 24.9971 17.2989 25.0464 17.2369 25.0815L16.5369 25.571C16.4463 25.6344 16.3395 25.6708 16.229 25.6759C16.2055 25.6748 15.7811 25.7758 15.109 24.2768C14.699 24.7881 14.1773 25.1989 13.5838 25.4778C12.9903 25.7566 12.3409 25.8961 11.6851 25.8856C10.7948 25.9343 8.38204 25.3809 8.50618 22.815C8.41923 20.7239 10.3688 19.4248 12.3851 19.5346C12.7734 19.5357 13.5663 19.5548 14.9548 19.8771V19.0238C15.1019 17.5784 14.1509 16.4569 12.5043 16.6251C12.3731 16.6257 11.4434 16.5978 9.99748 17.1774C9.59499 17.3621 9.54358 17.3315 9.4096 17.3315C9.00437 17.3315 9.17117 16.1581 9.24882 16.0095C9.53374 15.6599 11.2099 15.007 12.8549 15.0163C13.9547 14.9192 15.0487 15.2583 15.9004 15.9603C16.2465 16.3471 16.5106 16.8 16.6767 17.2916C16.8428 17.7832 16.9074 18.3034 16.8667 18.8206L16.8661 22.6058ZM12.1401 24.3752C13.9136 24.3495 14.6644 23.2843 14.8356 22.7107C14.9701 22.1617 14.9477 21.8142 14.9477 21.2139C14.4189 21.0871 13.6577 20.9489 12.7843 20.9478C11.9558 20.8856 10.4426 21.2554 10.5017 22.7101C10.4339 23.6273 11.1098 24.4254 12.1401 24.3752ZM21.4871 25.6344C21.0573 25.6737 20.8571 25.3689 20.7937 25.0679L18.0703 16.0734C18.0173 15.9215 17.9823 15.7647 17.9653 15.6047C17.9553 15.5387 17.9719 15.4714 18.0114 15.4176C18.051 15.3639 18.1104 15.328 18.1764 15.3179C18.1895 15.3157 18.0599 15.3179 19.3932 15.3179C19.8733 15.2698 20.0297 15.6473 20.0795 15.8844L22.0329 23.5776L23.8463 15.8844C23.8753 15.7085 24.0071 15.2796 24.5463 15.325H25.4847C25.6034 15.3151 26.0923 15.2977 26.1782 15.8915L28.0058 23.683L30.0221 15.8915C30.0483 15.7724 30.1708 15.2704 30.7155 15.325H31.7939C31.8404 15.3179 32.1302 15.2807 32.081 15.7937C32.0575 15.8948 32.2675 15.2114 29.1963 25.075C29.1334 25.376 28.9327 25.6808 28.5029 25.6415H27.4808C26.8825 25.7043 26.7967 25.1137 26.7874 25.0542L24.974 17.5631L23.1813 25.0466C23.1726 25.1061 23.0867 25.6966 22.4879 25.6338H21.4871V25.6344ZM36.4428 25.9419C36.1213 25.9425 34.5879 25.9255 33.306 25.2705C33.1783 25.2165 33.0696 25.1259 32.9935 25.01C32.9175 24.8942 32.8776 24.7584 32.8789 24.6199V24.0327C32.8789 23.5711 33.218 23.6557 33.3618 23.7109C33.9108 23.9327 34.263 24.1009 34.9373 24.2353C36.9416 24.6467 37.8231 24.1097 38.0391 23.9906C38.7583 23.564 38.8151 22.5878 38.3262 22.0814C37.7531 21.6012 37.4797 21.5831 35.4207 20.9342C35.167 20.8637 33.0309 20.1907 33.026 18.0739C32.9927 16.5312 34.3959 15.0049 36.8278 15.0174C37.5207 15.0169 39.3669 15.243 39.8668 15.8707C39.9406 15.9849 39.9772 16.1193 39.9718 16.2553V16.8076C39.9718 17.0501 39.8832 17.1714 39.7054 17.1714C39.2838 17.1244 38.5357 16.5612 37.017 16.5842C36.6402 16.5645 34.8356 16.6339 34.9165 17.9482C34.893 18.984 36.3717 19.3724 36.5407 19.4172C38.5346 20.0164 39.2012 20.1158 39.9925 21.033C40.9299 22.2485 40.4246 23.6716 40.2304 24.0616C39.187 26.1096 36.4888 25.943 36.4428 25.9419ZM38.6412 31.6702C34.8115 34.4955 29.2521 35.9994 24.5053 35.9994C18.1004 36.0416 11.9114 33.6891 7.15487 29.4042C6.79777 29.0825 7.11277 28.6416 7.54698 28.8869C12.8234 31.9019 18.7974 33.4861 24.8761 33.4822C29.4155 33.4579 33.9053 32.538 38.0878 30.7754C38.732 30.5022 39.2783 31.2015 38.6412 31.6702ZM40.2375 29.8516C39.7475 29.2223 36.9957 29.5577 35.7636 29.7047C35.3923 29.7467 35.3294 29.425 35.6657 29.1873C37.857 27.6485 41.4559 28.0893 41.8694 28.6067C42.2823 29.124 41.7573 32.7261 39.706 34.4469C39.391 34.713 39.0897 34.5726 39.2297 34.2229C39.6912 33.0621 40.7275 30.4815 40.2375 29.8516Z" fill="#FE9900"/>
</svg>
