<svg width="50" height="50" viewBox="0 0 50 50" fill="none" xmlns="http://www.w3.org/2000/svg">
<g clip-path="url(#clip0_141_19)">
<path d="M50 25C50 38.8071 38.8071 50 25 50C11.1929 50 0 38.8071 0 25C0 11.1929 11.1929 0 25 0C38.8071 0 50 11.1929 50 25Z" fill="#379AD6"/>
<path fill-rule="evenodd" clip-rule="evenodd" d="M33.7278 37.6976L35.7422 15.8778H14.2578L16.2719 37.6976L24.9999 40.0478L33.7278 37.6976Z" fill="white"/>
<path fill-rule="evenodd" clip-rule="evenodd" d="M32.0827 36.2769L33.713 17.6452H24.9998V38.1735L25.0195 38.1788L32.0827 36.2769Z" fill="white"/>
<path fill-rule="evenodd" clip-rule="evenodd" d="M18.6252 13.9688H21.9412V12.672H20.0464V11.3733H21.9412V9.95221H18.6252V13.9688ZM23.3583 11.3734C23.8019 11.817 24.0333 12.0293 24.675 12.6711C24.2999 12.6711 23.3583 12.6725 23.3583 12.6723V13.9688H26.6745V12.672L25.3499 11.3733H26.6745V9.95221H23.3583C23.3583 9.95221 23.3583 10.6655 23.3583 11.3734ZM31.3747 9.95221H28.0583C28.0583 9.95221 28.0583 10.6655 28.0583 11.3734C28.502 11.817 28.7335 12.0293 29.3752 12.6711C29.0003 12.6711 28.0583 12.6725 28.0583 12.6723V13.9688H31.3747V12.672L30.0501 11.3733H31.3747V9.95221Z" fill="white"/>
<path d="M18.174 20.2826L18.5646 22.9437L25.3517 22.8949L18.8088 25.6537L18.9797 28.2904H28.257L28.0373 31.7572L25.0588 32.6605L22.0314 31.8304L21.8605 29.7552H19.1994L19.5412 33.8324L24.9855 35.4193L30.5275 33.8812L31.2111 25.6537H24.9367L31.4553 22.8949L31.6506 20.2582L18.174 20.2826Z" fill="#379AD6"/>
</g>
<defs>
<clipPath id="clip0_141_19">
<rect width="50" height="50" fill="white"/>
</clipPath>
</defs>
</svg>
