<svg width="50" height="50" viewBox="0 0 50 50" fill="none" xmlns="http://www.w3.org/2000/svg">
<circle cx="25" cy="25" r="25" fill="#E8BAD7"/>
<g clip-path="url(#clip0_141_53)">
<path d="M27.4911 12.0119L34.6879 16.1681C35.8779 14.9154 37.8569 14.8658 39.1096 16.0558C39.3254 16.26 39.5092 16.4948 39.6594 16.7515C40.5184 18.2506 39.9977 20.1625 38.4986 21.0215C38.2448 21.1673 37.9721 21.2767 37.6848 21.3467V29.6577C39.3561 30.0558 40.3886 31.7329 39.989 33.4042C39.919 33.7017 39.8038 33.9875 39.6507 34.2515C38.7873 35.7433 36.8784 36.2552 35.3821 35.3919C35.0963 35.2271 34.8352 35.0142 34.615 34.7663L27.4619 38.8963C28.0044 40.5354 27.1148 42.3015 25.4771 42.8425C25.1607 42.946 24.8325 43 24.5 43C22.7777 43.0015 21.3807 41.6073 21.3792 39.885C21.3792 39.586 21.4215 39.2871 21.5075 38.9969L14.3092 34.845C13.1192 36.0904 11.1432 36.1385 9.89628 34.9471C8.65086 33.7571 8.6042 31.781 9.7942 30.5342C10.2069 30.101 10.7363 29.7963 11.3167 29.6548L11.3182 21.3438C9.64107 20.9413 8.60857 19.254 9.01253 17.5754C9.08107 17.2867 9.1919 17.0081 9.3392 16.75C10.2025 15.2567 12.1129 14.7463 13.6077 15.6096C13.8659 15.7569 14.1021 15.9421 14.3077 16.1594L21.509 12.0031C21.019 10.3508 21.9625 8.61688 23.6104 8.12833C23.8977 8.04229 24.1996 8 24.5 8C26.2223 7.99854 27.6194 9.39125 27.6209 11.1121C27.6223 11.4169 27.5771 11.7217 27.4911 12.0119ZM26.74 13.2908C26.7123 13.3215 26.6861 13.3477 26.6554 13.3754L36.0777 29.6942C36.1157 29.681 36.1594 29.6708 36.1973 29.6606V21.3379C34.5275 20.9252 33.5111 19.235 33.9252 17.5638C33.934 17.5288 33.9427 17.4923 33.9529 17.4588L26.74 13.2908ZM22.3432 13.3769L22.2557 13.2894L15.0427 17.4485C15.5196 19.1038 14.5659 20.829 12.9121 21.3058C12.8742 21.3175 12.8377 21.3263 12.8013 21.3365V29.6606L12.9238 29.6942L22.3461 13.3754L22.3432 13.3769ZM25.3707 14.1163C24.8019 14.2796 24.1996 14.2796 23.6323 14.1163L14.2115 30.4335C14.6402 30.8463 14.9436 31.3742 15.0865 31.9517H33.915C34.0565 31.3713 34.3627 30.8419 34.7944 30.4292L25.3707 14.1163ZM26.8086 37.7806L33.9734 33.6419C33.9515 33.5733 33.934 33.5048 33.9179 33.4348H15.0821L15.0515 33.5558L22.2542 37.715C22.82 37.1258 23.6163 36.7627 24.5 36.7627C25.4144 36.7627 26.2354 37.155 26.8086 37.7806Z" fill="#F6009B"/>
</g>
<defs>
<clipPath id="clip0_141_53">
<rect width="35" height="35" fill="white" transform="translate(7 8)"/>
</clipPath>
</defs>
</svg>
