<svg width="50" height="50" viewBox="0 0 50 50" fill="none" xmlns="http://www.w3.org/2000/svg">
<g clip-path="url(#clip0_141_28)">
<path d="M50 25C50 38.8071 38.8071 50 25 50C11.1929 50 0 38.8071 0 25C0 11.1929 11.1929 0 25 0C38.8071 0 50 11.1929 50 25Z" fill="#E44D26"/>
<path fill-rule="evenodd" clip-rule="evenodd" d="M24.9868 40.1626L33.7848 37.7234L35.7422 15.797H14.2578L16.213 37.7269L24.9868 40.1626Z" fill="white"/>
<path fill-rule="evenodd" clip-rule="evenodd" d="M18.8738 11.1878H17.6235V9.8374H16.2567V13.9268H17.6235V12.5574H18.8738V13.9268H20.2406V9.8374H18.8737L18.8738 11.1878ZM20.8348 11.1935H22.0382V13.9268H23.4051V11.1935H24.6089V9.83741H20.8348V11.1935ZM27.5098 11.2743L26.633 9.83741H25.2079V13.9268H26.5452V11.8998L27.4862 13.3539H27.5097L28.4501 11.8998V13.9268H29.8112V9.83741H28.3855L27.5098 11.2743ZM31.8588 12.5751V9.83741H30.4916V13.9268H33.781V12.5751H31.8588Z" fill="white"/>
<path d="M18.2068 20.2177H31.7078L31.488 23.0009H21.1609L21.4539 25.6864H31.1707L30.4871 34.0116L25.0183 35.5009L19.4763 34.0116L19.0613 29.7635H21.7712L21.991 31.8632L24.9939 32.7177L27.9968 31.8632L28.2898 28.4208H18.9636L18.2068 20.2177Z" fill="#E44D26"/>
</g>
<defs>
<clipPath id="clip0_141_28">
<rect width="50" height="50" fill="white"/>
</clipPath>
</defs>
</svg>
