<svg width="30" height="30" viewBox="0 0 30 30" fill="none" xmlns="http://www.w3.org/2000/svg">
<path d="M7.75078 26.2499H2.30859V8.72451H7.75078V26.2499ZM5.02676 6.33389C3.28652 6.33389 1.875 4.89248 1.875 3.15225C1.875 2.31635 2.20706 1.51469 2.79813 0.923617C3.3892 0.332547 4.19086 0.000488281 5.02676 0.000488281C5.86266 0.000488281 6.66432 0.332547 7.25539 0.923617C7.84646 1.51469 8.17852 2.31635 8.17852 3.15225C8.17852 4.89248 6.76641 6.33389 5.02676 6.33389ZM28.1191 26.2499H22.6887V17.7187C22.6887 15.6854 22.6477 13.078 19.8592 13.078C17.0297 13.078 16.5961 15.287 16.5961 17.5722V26.2499H11.1598V8.72451H16.3793V11.1151H16.4555C17.182 9.73818 18.9568 8.28506 21.6047 8.28506C27.1125 8.28506 28.125 11.912 28.125 16.6229V26.2499H28.1191Z" fill="black"/>
</svg>
