<svg width="50" height="50" viewBox="0 0 50 50" fill="none" xmlns="http://www.w3.org/2000/svg">
<circle cx="25" cy="25" r="25" fill="#DCF4EF"/>
<path d="M27.6624 11.1239C26.1344 9.28146 24.8185 7.41023 24.5497 7.02159C24.5214 6.9928 24.479 6.9928 24.4507 7.02159C24.1818 7.41023 22.866 9.28146 21.338 11.1239C8.22224 28.1233 23.4037 39.5954 23.4037 39.5954L23.531 39.6818C23.6442 41.4522 23.9272 44 23.9272 44H24.4931H25.059C25.059 44 25.342 41.4666 25.4552 39.6818L25.5825 39.581C25.5967 39.5954 40.7782 28.1233 27.6624 11.1239ZM24.4931 39.3363C24.4931 39.3363 23.814 38.7461 23.63 38.444V38.415L24.4507 19.9043C24.4507 19.8467 24.5356 19.8467 24.5356 19.9043L25.3562 38.415V38.444C25.1722 38.7461 24.4931 39.3363 24.4931 39.3363Z" fill="#001E2B"/>
</svg>
