<svg width="50" height="50" viewBox="0 0 50 50" fill="none" xmlns="http://www.w3.org/2000/svg">
<circle cx="25" cy="25" r="25" fill="#86BE02"/>
<path d="M24.263 38.1328C24.1284 38.1328 23.9939 38.0941 23.8722 38.0297L22.6422 37.2949C22.4564 37.1918 22.5461 37.1531 22.6102 37.1338C22.8536 37.05 22.9048 37.0306 23.1675 36.876C23.1931 36.8631 23.2316 36.8695 23.2572 36.8824L24.2053 37.4496C24.2373 37.4689 24.2886 37.4689 24.3206 37.4496L28.0234 35.2969C28.0555 35.2775 28.0811 35.2388 28.0811 35.1937V30.8947C28.0811 30.8496 28.0619 30.8109 28.0234 30.7916L24.3206 28.6453C24.2886 28.626 24.2437 28.626 24.2053 28.6453L20.5025 30.7916C20.4641 30.8109 20.4448 30.856 20.4448 30.8947V35.1937C20.4448 35.2324 20.4705 35.2711 20.5025 35.2904L21.5147 35.8769C22.0656 36.1541 22.4052 35.8254 22.4052 35.5031V31.2556C22.4052 31.1976 22.45 31.1461 22.5141 31.1461H22.9817C23.0394 31.1461 23.0906 31.1912 23.0906 31.2556V35.5031C23.0906 36.2443 22.6934 36.6633 21.9952 36.6633C21.7837 36.6633 21.6108 36.6633 21.1431 36.4312L20.1694 35.8705C19.9323 35.7287 19.7786 35.4709 19.7786 35.1937V30.8947C19.7786 30.6176 19.9259 30.3533 20.1694 30.2179L23.8722 28.0652C24.1092 27.9299 24.4167 27.9299 24.6473 28.0652L28.3502 30.2179C28.5872 30.3597 28.7409 30.6176 28.7409 30.8947V35.1937C28.7409 35.4709 28.5936 35.7351 28.3502 35.8705L24.6473 38.0232C24.5384 38.0941 24.4039 38.1328 24.263 38.1328ZM27.2547 33.8918C27.2547 33.0861 26.7166 32.8734 25.5762 32.7187C24.4231 32.564 24.3078 32.4867 24.3078 32.216C24.3078 31.9904 24.4039 31.6939 25.2559 31.6939C26.0183 31.6939 26.3002 31.8615 26.4155 32.3771C26.4283 32.4287 26.4667 32.4609 26.518 32.4609H26.9984C27.0305 32.4609 27.0561 32.448 27.0753 32.4287C27.0945 32.4029 27.1073 32.3771 27.1009 32.3449C27.0241 31.4554 26.4411 31.0429 25.2559 31.0429C24.1989 31.0429 23.5711 31.4941 23.5711 32.2418C23.5711 33.0603 24.1989 33.2795 25.2111 33.3826C26.4219 33.5051 26.518 33.6791 26.518 33.9176C26.518 34.3365 26.1848 34.5105 25.4033 34.5105C24.4231 34.5105 24.2053 34.2656 24.1348 33.7758C24.1284 33.7242 24.0836 33.6855 24.0259 33.6855H23.5455C23.4878 33.6855 23.4366 33.7306 23.4366 33.7951C23.4366 34.4203 23.7761 35.1679 25.3969 35.1679C26.582 35.1679 27.2547 34.7039 27.2547 33.8918ZM30.7461 30.6627C30.7461 31.0558 30.4258 31.3781 30.035 31.3781C29.6442 31.3781 29.3239 31.0558 29.3239 30.6627C29.3239 30.2566 29.657 29.9472 30.035 29.9472C30.4194 29.9408 30.7461 30.2566 30.7461 30.6627ZM30.6308 30.6627C30.6308 30.3275 30.3617 30.0633 30.0286 30.0633C29.7019 30.0633 29.4328 30.3275 29.4328 30.6627C29.4328 30.9978 29.7019 31.2685 30.0286 31.2685C30.3617 31.2621 30.6308 30.9914 30.6308 30.6627ZM30.3425 31.0623H30.1759C30.1695 31.0236 30.1439 30.8174 30.1439 30.8109C30.1311 30.7658 30.1183 30.74 30.0606 30.74H29.9197V31.0623H29.7659V30.2566H30.0414C30.1375 30.2566 30.3233 30.2566 30.3233 30.4693C30.3233 30.6176 30.2272 30.6498 30.1695 30.6691C30.2784 30.6756 30.2848 30.7465 30.3041 30.8496C30.3105 30.914 30.3233 31.0236 30.3425 31.0623ZM30.1631 30.4951C30.1631 30.3855 30.0862 30.3855 30.0478 30.3855H29.9197V30.6111H30.0414C30.1439 30.6111 30.1631 30.5402 30.1631 30.4951ZM12.7958 21.3105C12.7958 21.1365 12.7061 20.9818 12.5588 20.898L8.63172 18.6228C8.56766 18.5842 8.49078 18.5648 8.41391 18.5584H8.37547C8.29859 18.5584 8.22812 18.5842 8.15766 18.6228L4.23703 20.898C4.08969 20.9818 4 21.1429 4 21.3105L4.00641 27.4336C4.00641 27.5174 4.05125 27.5947 4.12172 27.6398C4.19219 27.6849 4.28187 27.6849 4.35875 27.6398L6.69062 26.2928C6.83797 26.2025 6.92766 26.0478 6.92766 25.8803V23.0185C6.92766 22.851 7.01734 22.6898 7.16469 22.606L8.15766 22.0324C8.23453 21.9873 8.31141 21.9679 8.39469 21.9679C8.47797 21.9679 8.56125 21.9873 8.63172 22.0324L9.62469 22.606C9.77203 22.6898 9.86172 22.851 9.86172 23.0185V25.8803C9.86172 26.0478 9.95141 26.209 10.0987 26.2928L12.4306 27.6398C12.5011 27.6849 12.5972 27.6849 12.6677 27.6398C12.7381 27.6012 12.783 27.5174 12.783 27.4336L12.7958 21.3105ZM34.2695 14.6267V25.9963C34.2695 26.1638 34.1798 26.325 34.0325 26.4088L30.1055 28.6904C29.9581 28.7742 29.7788 28.7742 29.6314 28.6904L25.7044 26.4088C25.557 26.325 25.4673 26.1638 25.4673 25.9963V21.433C25.4673 21.2654 25.557 21.1043 25.7044 21.0205L29.6314 18.7388C29.7788 18.6551 29.9581 18.6551 30.1055 18.7388L31.0856 19.306C31.1945 19.3705 31.3355 19.2867 31.3355 19.1642V13.1056C31.3355 12.9252 31.5277 12.8092 31.6878 12.8994L34.0261 14.2142C34.1734 14.2916 34.2695 14.4527 34.2695 14.6267ZM31.3227 22.9347C31.3227 22.8896 31.297 22.851 31.265 22.8316L29.9197 22.0453C29.8812 22.026 29.8364 22.026 29.798 22.0453L28.4527 22.8316C28.4142 22.851 28.395 22.8896 28.395 22.9347V24.501C28.395 24.5461 28.4206 24.5847 28.4527 24.6041L29.798 25.384C29.8364 25.4033 29.8812 25.4033 29.9133 25.384L31.2586 24.6041C31.297 24.5847 31.3162 24.5461 31.3162 24.501V22.9347H31.3227ZM44.763 22.8896C44.9103 22.8058 45 22.6447 45 22.4771V21.375C45 21.2074 44.9103 21.0463 44.763 20.9625L40.8616 18.6808C40.7142 18.597 40.5348 18.597 40.3875 18.6808L36.4605 20.9625C36.3131 21.0463 36.2234 21.2074 36.2234 21.375V25.9383C36.2234 26.1123 36.3131 26.267 36.4605 26.3508L40.3619 28.5873C40.5028 28.6711 40.6822 28.6711 40.8295 28.5873L43.187 27.266C43.3472 27.1758 43.3472 26.9437 43.187 26.8535L39.2344 24.5719C39.1575 24.5267 39.1127 24.4494 39.1127 24.3656V22.9347C39.1127 22.851 39.1575 22.7736 39.2344 22.7285L40.4644 22.0131C40.5348 21.9679 40.6309 21.9679 40.7014 22.0131L41.9314 22.7285C42.0019 22.7736 42.0531 22.851 42.0531 22.9347V24.0562C42.0531 24.2367 42.2517 24.3527 42.4119 24.2625L44.763 22.8896ZM39.8109 23.1152C39.7853 23.1345 39.7661 23.1603 39.7661 23.1926V24.0691C39.7661 24.1013 39.7853 24.1336 39.8109 24.1465L40.5669 24.5847C40.5925 24.6041 40.6309 24.6041 40.6566 24.5847L41.4125 24.1465C41.4381 24.1271 41.4573 24.1013 41.4573 24.0691V23.1926C41.4573 23.1603 41.4381 23.1281 41.4125 23.1152L40.6566 22.6769C40.6309 22.6576 40.5925 22.6576 40.5669 22.6769L39.8109 23.1152ZM23.5262 25.9189V21.3814C23.5262 21.2138 23.4237 21.0527 23.2764 20.9689L19.3622 18.7002C19.2277 18.6228 19.0419 18.6099 18.8881 18.7002L14.9739 20.9689C14.8266 21.0527 14.7241 21.2074 14.7241 21.3814V25.9189C14.7241 26.0994 14.8458 26.2541 14.9803 26.3314L18.9009 28.6002C19.0547 28.6904 19.2341 28.684 19.375 28.6002L23.2828 26.3314C23.3981 26.267 23.4814 26.1574 23.5134 26.0285C23.5198 25.9963 23.5262 25.9576 23.5262 25.9189ZM18.7664 17.8687L18.7152 17.901H18.7856L18.7664 17.8687ZM23.648 26.2605L23.6223 26.2154V26.2734L23.648 26.2605Z" fill="black"/>
</svg>
