<svg width="50" height="50" viewBox="0 0 50 50" fill="none" xmlns="http://www.w3.org/2000/svg">
<circle cx="25" cy="25" r="25" fill="#292929"/>
<g clip-path="url(#clip0_150_88)">
<path d="M28.886 33.0967C27.9266 34.4609 26.8812 35.7625 25.756 36.9936C28.7517 39.9014 31.5395 41.2631 33.0839 40.3691C34.6319 39.4768 34.8451 36.3826 33.8257 32.3352C32.2974 32.6756 30.6365 32.9336 28.886 33.0967ZM26.5389 33.2526C25.1802 33.3088 23.8198 33.3088 22.4611 33.2526C23.1366 34.1341 23.8192 34.9511 24.5 35.6964C25.1809 34.9511 25.8617 34.1341 26.5389 33.2526ZM35.5689 19.1091C40.3437 20.478 43.4612 22.7534 43.4612 25.5C43.4612 28.2466 40.3437 30.5221 35.5689 31.8909C36.7694 36.7105 36.3591 40.5482 33.9815 41.9206C31.6022 43.2949 28.0726 41.7325 24.5 38.2836C20.9274 41.7325 17.3979 43.2949 15.0185 41.9206C12.641 40.5482 12.2289 36.7105 13.4311 31.8909C8.65632 30.5221 5.53882 28.2466 5.53882 25.5C5.53882 22.7534 8.65632 20.478 13.4311 19.1091C12.2307 14.2896 12.641 10.4518 15.0185 9.07939C17.3979 7.70518 20.9274 9.26751 24.5 12.7165C28.0726 9.26751 31.6022 7.70518 33.9815 9.07939C36.3591 10.4518 36.7712 14.2896 35.5689 19.1091ZM33.8257 18.6648C34.8469 14.6156 34.6319 11.5232 33.0857 10.631C31.5395 9.73693 28.7517 11.0986 25.7578 14.0065C26.8167 15.1585 27.8702 16.4682 28.886 17.9033C30.6383 18.0646 32.2974 18.3226 33.8257 18.6648ZM15.1744 32.3352C14.1532 36.3844 14.3682 39.4768 15.9144 40.3691C17.4606 41.2631 20.2484 39.9014 23.2423 36.9936C22.1177 35.7625 21.0728 34.4609 20.114 33.0967C18.453 32.9482 16.8031 32.6939 15.1744 32.3352ZM22.4611 17.7475C23.8198 17.6912 25.1802 17.6912 26.5389 17.7475C25.8949 16.9044 25.2146 16.0896 24.5 15.3054C23.8192 16.0508 23.1384 16.866 22.4611 17.7475ZM20.114 17.9033C21.074 16.5391 22.1201 15.2375 23.2459 14.0065C20.2484 11.0986 17.4588 9.73693 15.9162 10.631C14.3682 11.5232 14.1549 14.6174 15.1744 18.6648C16.7027 18.3244 18.3636 18.0664 20.114 17.9033ZM27.8934 31.3767C29.1688 29.505 30.3025 27.5407 31.2851 25.5C30.3025 23.4594 29.1688 21.495 27.8934 19.6233C25.6343 19.4542 23.3657 19.4542 21.1066 19.6233C19.8312 21.495 18.6975 23.4594 17.715 25.5C18.6975 27.5407 19.8312 29.505 21.1066 31.3767C23.3657 31.5458 25.6343 31.5458 27.8934 31.3767ZM30.1939 31.142C31.2958 30.9986 32.3439 30.8141 33.3294 30.5973C33.0071 29.5864 32.6413 28.5899 32.2329 27.6106C31.6022 28.8147 30.922 29.9923 30.1939 31.1402V31.142ZM18.8061 19.8563C17.7042 19.9996 16.6561 20.1841 15.6707 20.4009C15.9753 21.3613 16.3408 22.361 16.7672 23.3876C17.3979 22.1835 18.0781 21.0042 18.8061 19.8563ZM15.6707 30.5955C16.6561 30.8123 17.7042 30.9951 18.8061 31.1402C18.0781 29.9923 17.3979 28.8147 16.7672 27.6106C16.3408 28.6354 15.9753 29.6352 15.6707 30.5955ZM13.9184 30.1566C14.3861 28.6623 14.9934 27.0964 15.728 25.4982C14.9934 23.9001 14.3861 22.3341 13.9184 20.8399C9.90153 21.9812 7.33048 23.7137 7.33048 25.4982C7.33048 27.2827 9.90153 29.0153 13.9184 30.1566ZM33.3294 20.4009C32.3439 20.1841 31.2958 20.0014 30.1939 19.8563C30.922 21.0042 31.6022 22.1817 32.2329 23.3858C32.6593 22.361 33.0248 21.3613 33.3294 20.4009ZM35.0816 20.8399C34.614 22.3341 34.0066 23.9001 33.272 25.4982C34.0066 27.0964 34.614 28.6623 35.0816 30.1566C39.0985 29.0153 41.6696 27.2827 41.6696 25.4982C41.6696 23.7137 39.0985 21.9812 35.0816 20.8399ZM24.5 28.8683C24.0577 28.8683 23.6197 28.7812 23.211 28.612C22.8024 28.4427 22.431 28.1946 22.1183 27.8818C21.8055 27.569 21.5574 27.1977 21.3881 26.789C21.2188 26.3804 21.1317 25.9424 21.1317 25.5C21.1317 25.0577 21.2188 24.6197 21.3881 24.211C21.5574 23.8023 21.8055 23.431 22.1183 23.1182C22.431 22.8055 22.8024 22.5574 23.211 22.3881C23.6197 22.2188 24.0577 22.1317 24.5 22.1317C25.3934 22.1317 26.2501 22.4866 26.8818 23.1182C27.5135 23.7499 27.8684 24.6067 27.8684 25.5C27.8684 26.3934 27.5135 27.2501 26.8818 27.8818C26.2501 28.5135 25.3934 28.8683 24.5 28.8683Z" fill="#61DAFB"/>
</g>
<defs>
<clipPath id="clip0_150_88">
<rect width="43" height="43" fill="white" transform="translate(3 4)"/>
</clipPath>
</defs>
</svg>
