<svg width="50" height="50" viewBox="0 0 50 50" fill="none" xmlns="http://www.w3.org/2000/svg">
<circle cx="25" cy="25" r="25" fill="#DBC5FE"/>
<path d="M31.864 30.776C33.14 30.644 34.108 29.544 34.064 28.224C34.02 26.904 32.92 25.848 31.6 25.848H31.512C30.148 25.892 29.092 27.036 29.136 28.4C29.18 29.06 29.444 29.632 29.84 30.028C28.344 32.976 26.056 35.132 22.624 36.936C20.292 38.168 17.872 38.608 15.452 38.3C13.472 38.036 11.932 37.156 10.964 35.704C9.55602 33.548 9.42402 31.216 10.612 28.884C11.448 27.212 12.768 25.98 13.604 25.364C13.428 24.792 13.164 23.824 13.032 23.12C6.65202 27.74 7.31202 33.988 9.24802 36.936C10.7 39.136 13.648 40.5 16.904 40.5C17.784 40.5 18.664 40.412 19.544 40.192C25.176 39.092 29.444 35.748 31.864 30.776Z" fill="#764ABC"/>
<path d="M39.608 25.32C36.264 21.404 31.336 19.248 25.704 19.248H25C24.604 18.456 23.768 17.928 22.844 17.928H22.7561C21.3921 17.972 20.336 19.116 20.38 20.48C20.424 21.8 21.524 22.856 22.844 22.856H22.932C23.9 22.812 24.736 22.196 25.088 21.36H25.88C29.224 21.36 32.392 22.328 35.252 24.22C37.452 25.672 39.036 27.564 39.916 29.852C40.664 31.7 40.62 33.504 39.828 35.044C38.596 37.376 36.528 38.652 33.8 38.652C32.04 38.652 30.368 38.124 29.488 37.728C29.004 38.168 28.124 38.872 27.508 39.312C29.4 40.192 31.336 40.676 33.184 40.676C37.408 40.676 40.532 38.344 41.72 36.012C42.996 33.46 42.908 29.06 39.608 25.32Z" fill="#764ABC"/>
<path d="M17.256 31.524C17.3 32.844 18.4 33.9 19.72 33.9H19.808C21.172 33.856 22.228 32.712 22.184 31.348C22.14 30.028 21.04 28.972 19.72 28.972H19.632C19.544 28.972 19.412 28.972 19.324 29.016C17.52 26.024 16.772 22.768 17.036 19.248C17.212 16.608 18.092 14.32 19.632 12.428C20.908 10.8 23.372 10.008 25.044 9.96399C29.708 9.87599 31.688 15.684 31.82 18.016C32.392 18.148 33.36 18.456 34.02 18.676C33.492 11.548 29.092 7.85199 24.868 7.85199C20.908 7.85199 17.256 10.712 15.804 14.936C13.78 20.568 15.1 25.98 17.564 30.248C17.344 30.556 17.212 31.04 17.256 31.524Z" fill="#764ABC"/>
</svg>
