<svg width="50" height="50" viewBox="0 0 50 50" fill="none" xmlns="http://www.w3.org/2000/svg">
<circle cx="25" cy="25" r="25" fill="#0078CF"/>
<path d="M29.5 17H8V22H15.5V44H21.5V22H29.5V17Z" fill="white"/>
<path d="M40.5 16C44.9 16 47.6667 19.1667 48.5 20.5L44 23.5C44 23.5 40 21 38.5 22.5C37.382 23.618 37.5 26 42 27.5C45.4986 28.6662 48.3333 31 49 32C48.8333 32.6667 48.5 34.4 46.5 38C44.5 41.6 40.8333 44.5 40 45C40 45 34 45.5 30.5 39L35.5 36C35.6667 37.1667 37.2 39 40 39C43.5 39 44.3436 37.3744 44 36C43.5783 34.3132 42.7041 34.0907 38 32C33.5 30 32.9 27.8 32.5 25C32.1 22.2 33.3333 19.8333 34 19C34.6667 18.1667 36.1 16 40.5 16Z" fill="white"/>
</svg>
