<svg width="50" height="50" viewBox="0 0 50 50" fill="none" xmlns="http://www.w3.org/2000/svg">
<circle cx="25" cy="25" r="25" fill="#75AECB"/>
<path d="M9 33.3333V17.3333M9 33.3333L25 42.6667M9 33.3333L18.3333 29.3333M9 17.3333L25 8M9 17.3333L25 25.3333M25 42.6667L41 33.3333M25 42.6667V25.3333M18.3333 29.3333V21.3333L25 17.3333M18.3333 29.3333L25 33.3333L31.6667 29.3333M25 8L41 17.3333M25 8V17.3333M25 25.3333L41 17.3333M41 17.3333V33.3333M25 17.3333L31.6667 21.3333V29.3333M41 33.3333L31.6667 29.3333" stroke="#1B78BF"/>
</svg>
